Coordinates
version=1
nRows=43
nColumns=12
inDegrees=yes

Units are S.I. units (second, meters, Newtons, ...)
Angles are in degrees

endheader
time	SC_y	SC_z	SC_x	AC_y	AC_z	AC_x	GH_y	GH_z	GH_yy	EL_x	PS_y
       0.0              -51.05           11.5          48.67          48.58         -7.454          -4.25         -85.91          82.39          77.04          23.67          20.99
     0.036              -51.05           11.5          48.67          48.58         -7.454          -4.25         -85.91          82.38          77.01          23.68           21.0
   0.07201              -51.04           11.5          48.68          48.58         -7.454         -4.251         -85.91          82.37          76.99           23.7           21.0
     0.108              -51.03          11.51          48.68          48.58         -7.455         -4.251          -85.9          82.36          76.96          23.71           21.0
     0.144              -51.03          11.51          48.69          48.58         -7.455         -4.251          -85.9          82.35          76.93          23.73          21.01
      0.18              -51.02          11.51           48.7          48.57         -7.455         -4.251          -85.9          82.34           76.9          23.75          21.01
     0.216              -51.01          11.51           48.7          48.57         -7.456         -4.251         -85.89          82.33          76.86          23.76          21.02
     0.252               -51.0          11.51          48.71          48.57         -7.456         -4.251         -85.89          82.32          76.83          23.79          21.02
     0.288              -50.99          11.51          48.72          48.57         -7.456         -4.251         -85.88          82.31          76.79          23.81          21.03
     0.324              -50.98          11.51          48.72          48.56         -7.457         -4.252         -85.88          82.29          76.74          23.83          21.03
      0.36              -50.97          11.51          48.73          48.56         -7.457         -4.252         -85.87          82.28           76.7          23.86          21.04
     0.396              -50.96          11.52          48.74          48.56         -7.457         -4.252         -85.86          82.26          76.65          23.88          21.04
     0.432              -50.95          11.52          48.75          48.55         -7.458         -4.252         -85.86          82.24           76.6          23.91          21.05
     0.468              -50.94          11.52          48.76          48.55         -7.458         -4.253         -85.85          82.22          76.54          23.94          21.06
    0.5041              -50.92          11.52          48.77          48.54         -7.459         -4.253         -85.84           82.2          76.48          23.98          21.07
    0.5401              -50.91          11.52          48.78          48.54         -7.459         -4.253         -85.84          82.18          76.41          24.01          21.08
    0.5761              -50.89          11.53           48.8          48.53          -7.46         -4.254         -85.83          82.16          76.34          24.05          21.08
    0.6121              -50.87          11.53          48.81          48.53         -7.461         -4.254         -85.82          82.13          76.26           24.1          21.09
    0.6481              -50.85          11.53          48.83          48.52         -7.461         -4.254         -85.81           82.1          76.18          24.15          21.11
    0.6841              -50.83          11.53          48.84          48.52         -7.462         -4.255         -85.79          82.07          76.08           24.2          21.12
    0.7201              -50.81          11.54          48.86          48.51         -7.463         -4.255         -85.78          82.03          75.98          24.26          21.13
    0.7561              -50.78          11.54          48.88           48.5         -7.464         -4.256         -85.77          81.99          75.87          24.32          21.15
    0.7921              -50.75          11.55          48.91          48.49         -7.465         -4.256         -85.75          81.95          75.74          24.39          21.16
    0.8281              -50.72          11.55          48.93          48.48         -7.466         -4.257         -85.73           81.9           75.6          24.47          21.18
    0.8641              -50.69          11.55          48.96          48.47         -7.468         -4.258         -85.72          81.85          75.45          24.55           21.2
    0.9001              -50.65          11.56          48.99          48.46         -7.469         -4.258         -85.69          81.79          75.27          24.65          21.22
    0.9361               -50.6          11.57          49.03          48.45         -7.471         -4.259         -85.67          81.73          75.08          24.76          21.25
    0.9721              -50.55          11.57          49.07          48.43         -7.473          -4.26         -85.64          81.65          74.86          24.88          21.28
     1.008              -50.49          11.58          49.11          48.41         -7.475         -4.262         -85.61          81.57          74.62          25.01          21.31
     1.044              -50.43          11.59          49.16          48.39         -7.477         -4.263         -85.58          81.48          74.34          25.17          21.35
      1.08              -50.36           11.6          49.22          48.37          -7.48         -4.264         -85.54          81.37          74.02          25.35          21.39
     1.116              -50.27          11.61          49.29          48.35         -7.483         -4.266         -85.49          81.25          73.65          25.55          21.43
     1.152              -50.18          11.63          49.36          48.32         -7.487         -4.268         -85.44           81.1          73.23          25.78          21.49
     1.188              -50.06          11.64          49.45          48.28         -7.491          -4.27         -85.38          80.94          72.74          26.06          21.55
     1.224              -49.93          11.66          49.56          48.24         -7.496         -4.273         -85.31          80.74          72.17          26.38          21.63
      1.26              -49.77          11.68          49.68           48.2         -7.502         -4.276         -85.22          80.51          71.49          26.75          21.72
     1.296              -49.59          11.71          49.83          48.14         -7.509          -4.28         -85.12          80.24          70.69           27.2          21.82
     1.332              -49.37          11.74           50.0          48.07         -7.518         -4.284          -85.0          79.92          69.73          27.73          21.95
     1.368               -49.1          11.78          50.21          47.99         -7.528          -4.29         -84.86          79.52          68.56          28.38           22.1
     1.404              -48.77          11.82          50.47          47.89          -7.54         -4.296         -84.68          79.04          67.14          29.18          22.29
      1.44              -48.37          11.88          50.79          47.77         -7.555         -4.304         -84.46          78.44          65.38          30.15          22.51
     1.476              -47.86          11.95          51.19          47.62         -7.574         -4.315         -84.19           77.7          63.19          31.37           22.8
     1.512              -47.23          12.04           51.7          47.42         -7.598         -4.327         -83.85          76.77          60.43          32.91          23.16
